<?xml version="1.0" standalone="no"?>
<!DOCTYPE svg PUBLIC "-//W3C//DTD SVG 20010904//EN"
 "http://www.w3.org/TR/2001/REC-SVG-20010904/DTD/svg10.dtd">
<svg version="1.0" xmlns="http://www.w3.org/2000/svg"
 width="1536.000000pt" height="1024.000000pt" viewBox="0 0 1536.000000 1024.000000"
 preserveAspectRatio="xMidYMid meet">

<g transform="translate(0.000000,1024.000000) scale(0.100000,-0.100000)"
fill="#6495ED" stroke="none">
<path d="M3496 7426 c-76 -32 -139 -94 -179 -176 -30 -61 -32 -71 -32 -175 0
-101 3 -115 28 -165 61 -118 152 -180 277 -188 175 -10 303 98 340 286 15 73
2 177 -30 249 -25 57 -99 134 -156 163 -72 36 -172 38 -248 6z m178 -150 c114
-48 153 -236 69 -336 -36 -43 -74 -60 -133 -60 -117 0 -187 88 -178 225 9 137
126 220 242 171z"/>
<path d="M2344 7400 c-33 -13 -49 -63 -34 -101 13 -30 78 -79 631 -469 253
-178 289 -208 318 -260 43 -77 40 -159 -18 -508 -28 -167 -60 -338 -71 -381
-11 -42 -110 -341 -220 -664 -110 -323 -200 -602 -200 -618 0 -82 75 -147 155
-135 78 12 84 22 235 356 363 804 416 914 447 918 33 5 33 5 439 -948 70 -164
119 -267 139 -288 56 -62 151 -49 202 27 39 58 47 22 -132 606 -234 762 -234
759 -280 1113 -33 251 -33 359 -1 428 29 63 71 97 251 206 77 47 203 123 280
170 77 48 210 129 295 181 165 101 183 120 164 174 -12 34 -52 58 -85 50 -14
-4 -65 -31 -114 -60 -50 -30 -247 -147 -440 -262 -452 -269 -497 -311 -526
-495 -12 -80 -4 -167 46 -506 39 -258 49 -299 135 -574 34 -107 72 -229 85
-270 64 -207 87 -277 133 -410 27 -80 54 -156 60 -170 18 -47 23 -80 12 -80
-6 0 -13 8 -17 18 -11 30 -279 672 -333 797 -28 66 -62 147 -74 180 -35 91
-91 197 -117 222 -73 67 -199 52 -262 -31 -16 -20 -41 -64 -57 -99 -61 -133
-213 -474 -325 -727 -159 -360 -167 -377 -172 -363 -2 6 26 94 63 195 155 426
337 958 358 1049 8 35 26 129 40 209 14 80 38 208 52 285 45 247 33 409 -42
522 -38 59 -75 90 -258 218 -71 50 -242 170 -380 268 -358 254 -341 244 -382
227z"/>
<path d="M6135 6932 c-236 -22 -363 -115 -411 -302 -20 -77 -15 -194 11 -254
57 -135 154 -202 380 -263 217 -58 269 -84 301 -145 21 -40 14 -120 -13 -156
-53 -71 -152 -103 -260 -83 -79 14 -109 29 -151 72 -32 33 -45 63 -57 132 l-6
37 -131 0 -131 0 6 -74 c16 -188 114 -309 297 -367 91 -29 280 -37 373 -15
183 43 307 165 338 333 12 64 7 177 -11 235 -24 82 -125 178 -229 218 -30 11
-120 39 -200 61 -155 42 -213 69 -243 110 -51 68 -21 173 62 217 39 21 55 23
128 20 71 -4 88 -8 124 -34 50 -35 76 -76 86 -136 l8 -43 123 -3 c69 -1 128 1
133 6 14 14 -10 141 -38 202 -14 30 -36 68 -49 86 -32 41 -117 97 -180 117
-47 15 -183 36 -215 34 -8 -1 -28 -3 -45 -5z"/>
<path d="M9870 6914 c-108 -30 -191 -93 -238 -181 -60 -114 -68 -275 -18 -377
54 -110 155 -180 336 -231 211 -60 258 -77 292 -105 66 -55 71 -168 10 -232
-78 -84 -275 -84 -372 -1 -44 38 -64 75 -75 142 l-7 41 -129 0 -129 0 0 -34
c0 -162 97 -320 234 -381 127 -56 321 -71 462 -35 229 59 341 228 313 474 -10
97 -36 153 -94 211 -59 59 -135 94 -318 144 -167 46 -222 70 -263 112 -26 27
-29 37 -29 94 0 57 3 67 30 96 41 43 83 59 158 59 135 0 209 -56 226 -168 l6
-47 134 -3 134 -3 -6 64 c-15 163 -109 291 -254 348 -76 30 -316 38 -403 13z"/>
<path d="M4680 6220 l0 -680 130 0 130 0 0 240 0 240 163 0 c172 0 228 9 314
51 233 113 286 523 93 717 -45 45 -121 85 -191 101 -24 6 -177 11 -341 11
l-298 0 0 -680z m595 423 c113 -63 127 -251 26 -336 -46 -38 -90 -47 -233 -47
l-128 0 0 198 c0 109 2 201 4 203 9 9 312 -7 331 -18z"/>
<path d="M6803 6223 l2 -678 130 0 130 0 3 258 2 257 148 0 c163 0 214 -10
254 -48 43 -40 56 -93 62 -248 3 -77 11 -158 18 -180 l13 -39 134 -3 c125 -2
133 -1 126 15 -26 62 -33 105 -38 248 -4 100 -12 180 -22 213 -18 58 -68 121
-115 144 l-30 15 49 31 c58 36 114 115 132 185 6 26 10 87 7 140 -3 77 -9 103
-34 158 -51 107 -135 173 -252 198 -33 7 -178 11 -387 11 l-334 0 2 -677z
m663 418 c102 -46 113 -240 18 -308 -48 -34 -102 -43 -261 -43 l-153 0 0 185
0 185 178 0 c151 0 183 -3 218 -19z"/>
<path d="M7875 6723 c67 -280 253 -1041 273 -1113 l17 -65 146 -3 147 -3 62
258 c34 142 84 348 111 458 27 110 49 208 49 217 0 33 19 18 26 -19 9 -52 104
-465 162 -708 l49 -200 153 0 153 0 19 80 c34 148 170 707 239 987 38 153 69
280 69 283 0 3 -63 5 -139 5 l-139 0 -16 -67 c-8 -38 -56 -259 -106 -493 -51
-234 -95 -428 -99 -433 -4 -4 -29 90 -55 210 -87 400 -134 617 -152 701 l-17
82 -137 0 -136 0 -108 -487 c-60 -269 -112 -494 -116 -502 -5 -10 -12 6 -20
45 -7 32 -27 127 -45 209 -18 83 -58 282 -90 443 l-58 292 -142 0 -142 0 42
-177z"/>
<path d="M7880 5329 c-65 -13 -105 -56 -105 -113 0 -60 28 -88 116 -115 74
-24 99 -42 99 -71 0 -46 -93 -67 -130 -30 -11 11 -20 25 -20 30 0 6 -18 10
-40 10 -47 0 -50 -12 -17 -61 62 -92 227 -88 271 6 38 80 -5 152 -105 175 -71
16 -99 35 -99 65 0 28 26 45 68 45 29 0 54 -20 65 -52 7 -19 43 -24 66 -9 12
8 12 14 0 47 -23 61 -87 88 -169 73z"/>
<path d="M4729 5324 c-3 -5 -3 -98 -1 -206 l4 -198 34 0 34 0 0 75 0 75 58 0
c66 0 117 25 132 66 23 60 3 145 -42 174 -26 16 -213 28 -219 14z m174 -82
c20 -17 23 -72 5 -90 -7 -7 -34 -12 -60 -12 l-48 0 0 58 c0 32 2 61 5 63 9 10
81 -4 98 -19z"/>
<path d="M5074 5322 l-32 -3 -1 -200 -2 -199 41 0 40 0 0 104 c0 97 2 106 22
120 29 20 34 20 58 -4 17 -17 20 -33 20 -120 l0 -100 35 0 35 0 0 119 c0 103
-3 122 -20 143 -27 35 -75 43 -120 19 l-36 -18 4 64 c3 36 1 68 -4 71 -5 4
-23 6 -40 4z"/>
<path d="M6212 5321 c-8 -5 -12 -21 -10 -37 2 -24 8 -29 35 -32 28 -3 33 1 39
22 3 14 4 33 0 41 -6 16 -43 20 -64 6z"/>
<path d="M6548 5323 c-27 -4 -28 -6 -28 -69 0 -35 -2 -64 -4 -64 -2 0 -19 6
-37 14 -19 7 -38 12 -44 11 -5 -2 -22 -6 -37 -9 -63 -14 -97 -156 -54 -234 31
-59 112 -76 159 -35 15 15 17 15 17 0 0 -13 9 -17 35 -17 l35 0 0 205 c0 113
-3 204 -7 204 -5 -1 -20 -4 -35 -6z m-61 -178 c43 -30 42 -132 -2 -161 -29
-19 -73 -2 -81 33 -11 41 2 116 22 130 23 17 35 16 61 -2z"/>
<path d="M8722 5321 c-8 -5 -12 -21 -10 -37 3 -25 7 -29 33 -29 27 0 30 3 33
38 3 33 1 37 -20 37 -13 0 -29 -4 -36 -9z"/>
<path d="M9168 5323 l-28 -4 0 -200 0 -199 35 0 35 0 0 205 c0 113 -3 204 -7
204 -5 -1 -20 -4 -35 -6z"/>
<path d="M9477 5319 c-21 -13 -47 -61 -47 -89 0 -12 7 -37 16 -56 16 -34 16
-34 -14 -62 -54 -51 -54 -113 -1 -163 42 -39 98 -46 151 -20 37 18 44 19 58 6
9 -8 36 -15 59 -15 l43 0 -35 43 -35 43 24 44 c33 65 32 82 -8 78 -27 -2 -33
-8 -40 -35 -5 -18 -11 -33 -13 -33 -3 0 -18 15 -35 33 l-29 32 36 37 c29 29
36 45 37 78 1 58 -35 90 -102 90 -26 0 -55 -5 -65 -11z m97 -62 c8 -13 7 -24
-4 -45 -22 -38 -52 -35 -64 7 -8 28 -7 36 9 48 24 17 44 14 59 -10z m10 -259
c-2 -3 -17 -11 -34 -16 -61 -22 -106 52 -59 99 l20 20 39 -48 c21 -26 36 -51
34 -55z"/>
<path d="M5430 5213 c-39 -12 -63 -30 -76 -55 -19 -37 -19 -38 19 -38 20 0 39
8 50 20 19 23 47 26 65 8 21 -21 14 -47 -15 -53 -75 -16 -104 -28 -123 -53
-25 -32 -21 -75 11 -107 26 -26 99 -27 127 -2 17 16 20 16 25 2 4 -10 19 -15
43 -15 29 0 35 3 30 16 -3 9 -6 60 -6 115 0 94 -1 100 -27 128 -28 29 -88 46
-123 34z m70 -193 c0 -34 -29 -55 -66 -46 -17 5 -24 13 -24 31 0 28 23 44 63
45 23 0 27 -4 27 -30z"/>
<path d="M5742 5198 c-44 -22 -42 -22 -42 -3 0 10 -10 15 -30 15 l-30 0 0
-145 0 -145 35 0 35 0 0 96 c0 109 9 134 48 134 46 0 52 -15 52 -127 l0 -103
36 0 36 0 -4 124 c-2 103 -6 127 -21 144 -26 28 -72 32 -115 10z"/>
<path d="M7435 5213 c-38 -8 -67 -27 -81 -55 -18 -35 -18 -35 11 -40 17 -4 33
2 51 18 28 26 54 30 72 12 24 -24 14 -47 -25 -53 -100 -17 -133 -42 -133 -100
0 -65 77 -101 142 -67 30 16 38 17 42 6 3 -8 18 -14 34 -14 l28 0 -4 123 c-3
109 -6 124 -25 143 -22 22 -76 35 -112 27z m65 -186 c0 -51 -69 -75 -94 -34
-9 15 -7 22 13 38 13 10 36 19 52 19 24 0 29 -4 29 -23z"/>
<path d="M8205 5212 c-66 -15 -111 -88 -101 -166 10 -87 73 -142 150 -132 78
9 121 65 121 157 -1 60 -19 98 -58 123 -25 15 -82 25 -112 18z m75 -72 c26
-26 28 -120 4 -144 -21 -21 -67 -20 -86 2 -65 73 14 210 82 142z"/>
<path d="M8506 5210 c-83 -25 -122 -136 -80 -225 42 -89 173 -97 224 -13 27
44 26 48 -13 48 -21 0 -41 -8 -52 -20 -22 -24 -67 -26 -86 -3 -19 22 -18 118
1 137 30 28 58 29 84 2 23 -26 60 -34 70 -17 10 15 -12 59 -36 74 -32 20 -77
27 -112 17z"/>
<path d="M8920 5210 c-36 -9 -80 -50 -80 -76 0 -22 63 -18 85 6 24 26 50 25
70 -2 14 -21 14 -24 0 -34 -8 -6 -38 -15 -66 -18 -91 -12 -128 -82 -75 -143
20 -23 32 -28 69 -28 29 0 52 6 65 18 17 16 20 16 25 2 4 -9 19 -15 39 -15
l33 0 -6 121 c-5 117 -6 123 -33 145 -15 13 -35 24 -46 24 -10 0 -24 2 -32 4
-7 2 -29 0 -48 -4z m82 -185 c-9 -50 -71 -74 -92 -35 -15 29 20 62 63 58 26
-2 31 -7 29 -23z"/>
<path d="M5956 5179 c-14 -17 -26 -42 -26 -55 0 -35 40 -71 94 -85 55 -14 74
-32 56 -54 -18 -22 -67 -19 -82 5 -14 21 -62 28 -73 10 -11 -18 24 -61 63 -77
39 -16 105 -11 133 10 22 17 39 51 39 79 0 41 -26 66 -85 79 -59 13 -81 30
-71 54 7 19 46 19 72 0 24 -19 74 -20 74 -1 0 7 -12 25 -26 40 -23 22 -35 26
-84 26 -53 0 -61 -3 -84 -31z"/>
<path d="M6207 5203 c-4 -3 -7 -69 -7 -145 l0 -138 41 0 c38 0 41 2 35 23 -3
12 -6 77 -6 145 l0 122 -28 0 c-16 0 -32 -3 -35 -7z"/>
<path d="M6682 5182 c-108 -101 -24 -293 117 -267 33 6 91 53 91 73 0 20 -53
20 -81 0 -34 -26 -75 -18 -91 17 -6 14 -9 27 -6 30 3 3 44 6 92 6 l86 1 0 41
c0 50 -30 104 -66 117 -14 6 -45 10 -69 10 -33 0 -50 -6 -73 -28z m116 -38
c12 -8 22 -24 22 -35 0 -16 -7 -19 -55 -19 -61 0 -71 14 -35 50 24 24 38 25
68 4z"/>
<path d="M6910 5206 c0 -3 11 -40 24 -83 14 -43 32 -106 42 -140 l17 -63 38 0
c27 0 39 4 39 14 0 29 33 156 40 156 4 0 16 -37 26 -82 l19 -83 38 -3 c24 -2
39 1 41 10 30 94 76 257 76 266 0 7 -14 12 -33 12 -33 0 -33 0 -52 -77 -26
-108 -31 -116 -45 -63 -36 139 -33 135 -67 138 -30 3 -32 1 -48 -55 -9 -32
-19 -73 -22 -90 -3 -18 -8 -33 -12 -33 -3 0 -15 39 -26 88 l-20 87 -37 3 c-21
2 -38 1 -38 -2z"/>
<path d="M8717 5203 c-4 -3 -7 -69 -7 -145 l0 -138 35 0 35 0 0 145 0 145 -28
0 c-16 0 -32 -3 -35 -7z"/>
<path d="M4730 4574 l0 -205 38 3 37 3 0 75 0 75 40 -3 c52 -5 66 -20 85 -90
l15 -57 43 -3 c38 -3 43 -1 38 15 -3 10 -15 49 -26 86 -12 37 -28 71 -36 74
-10 4 -7 12 15 32 38 36 48 88 26 134 -23 49 -72 67 -185 67 l-90 0 0 -206z
m188 124 c7 -7 12 -27 12 -44 0 -42 -30 -64 -87 -64 l-43 0 0 60 0 60 53 0
c29 0 58 -5 65 -12z"/>
<path d="M5878 4773 c-16 -4 -18 -22 -18 -204 l0 -199 35 0 35 0 0 203 c0 219
2 213 -52 200z"/>
<path d="M6110 4768 c0 -7 21 -100 47 -205 l48 -193 42 0 c47 0 42 -9 72 131
33 155 34 156 61 43 45 -194 36 -174 80 -174 28 0 40 5 44 18 9 29 96 374 96
381 0 9 -69 11 -74 2 -3 -4 -17 -63 -32 -132 -15 -68 -30 -127 -33 -131 -4 -4
-22 55 -40 132 l-33 140 -34 0 c-37 0 -30 15 -73 -159 -12 -47 -21 -94 -21
-105 -1 -43 -19 10 -45 128 -14 65 -28 122 -31 127 -8 14 -74 11 -74 -3z"/>
<path d="M6945 4772 l-30 -3 2 -197 2 -197 36 -3 35 -3 0 200 c0 110 -3 201
-7 203 -5 2 -21 2 -38 0z"/>
<path d="M7095 4756 c-17 -17 -25 -36 -25 -59 0 -26 -5 -36 -20 -40 -14 -3
-20 -14 -20 -31 0 -19 5 -26 20 -26 19 0 20 -7 20 -115 l0 -115 35 0 35 0 0
115 0 115 31 0 c27 0 30 3 27 28 -2 21 -9 28 -30 30 -22 3 -28 9 -28 26 0 28
22 48 47 44 13 -2 18 3 18 22 0 22 -5 25 -42 28 -35 3 -48 -2 -68 -22z"/>
<path d="M8245 4770 c-68 -28 -93 -124 -46 -174 14 -15 52 -35 88 -46 82 -25
99 -35 106 -59 9 -34 -19 -61 -64 -61 -52 0 -73 12 -89 50 -13 31 -40 39 -69
21 -19 -12 -7 -54 27 -92 45 -51 158 -62 220 -21 49 32 68 115 36 160 -18 26
-75 57 -124 67 -74 15 -100 53 -62 88 33 30 76 22 109 -20 25 -30 34 -35 56
-29 31 7 32 14 12 62 -10 23 -26 39 -49 49 -38 16 -119 19 -151 5z"/>
<path d="M9126 4767 c-14 -10 -17 -21 -12 -41 6 -24 11 -27 39 -24 29 3 32 6
32 38 0 27 -4 36 -20 38 -11 1 -29 -3 -39 -11z"/>
<path d="M9560 4701 c0 -30 -4 -40 -20 -44 -12 -3 -20 -14 -20 -27 0 -13 8
-24 20 -27 18 -5 20 -14 20 -95 0 -49 5 -98 11 -109 14 -27 56 -42 96 -34 28
5 33 10 33 35 0 25 -4 29 -32 32 l-33 3 -3 83 -3 82 31 0 c27 0 30 3 30 30 0
27 -3 30 -30 30 -28 0 -30 2 -30 40 0 39 -1 40 -35 40 -34 0 -35 -1 -35 -39z"/>
<path d="M7816 4659 c-83 -24 -122 -135 -79 -226 17 -37 76 -72 121 -73 40 0
90 27 107 59 l16 31 -33 0 c-18 0 -42 -7 -52 -15 -11 -8 -28 -15 -38 -15 -20
0 -68 42 -68 60 0 6 36 10 95 10 l95 0 0 30 c0 42 -28 106 -53 123 -30 19 -77
26 -111 16z m75 -70 c31 -31 19 -44 -44 -47 -64 -3 -70 5 -32 43 29 30 49 31
76 4z"/>
<path d="M8609 4661 c-73 -23 -102 -65 -101 -148 0 -67 25 -112 75 -137 70
-34 161 0 188 71 16 41 11 115 -11 150 -32 54 -96 81 -151 64z m72 -70 c20
-16 24 -28 24 -76 0 -48 -4 -60 -24 -76 -31 -25 -47 -24 -76 6 -19 18 -25 35
-25 70 0 35 6 52 25 70 29 30 45 31 76 6z"/>
<path d="M8925 4662 c-108 -13 -153 -176 -71 -258 40 -40 92 -52 144 -32 43
16 90 77 70 90 -24 15 -54 8 -77 -18 -18 -20 -28 -24 -49 -19 -39 9 -52 32
-52 91 0 44 4 56 25 72 29 23 61 19 76 -9 7 -13 21 -19 44 -19 39 0 43 9 18
51 -22 37 -73 58 -128 51z"/>
<path d="M5070 4538 c1 -129 5 -144 49 -167 27 -15 84 -7 101 14 15 18 31 20
28 3 -2 -8 10 -14 30 -16 l32 -3 0 145 0 146 -35 0 -35 0 0 -100 c0 -87 -3
-103 -20 -120 -25 -25 -42 -25 -63 -2 -14 15 -17 40 -17 120 l0 102 -35 0 -35
0 0 -122z"/>
<path d="M5370 4515 l0 -145 35 0 35 0 0 84 c0 97 20 136 69 136 24 0 27 4 27
35 0 31 -3 35 -25 35 -14 0 -35 -10 -48 -22 l-23 -21 0 21 c0 18 -6 22 -35 22
l-35 0 0 -145z"/>
<path d="M5599 4631 c-36 -36 -37 -57 -3 -65 20 -5 31 -1 49 19 28 29 47 32
70 9 25 -26 13 -38 -56 -56 -79 -20 -114 -55 -105 -102 4 -17 15 -40 26 -50
25 -26 101 -28 128 -3 17 16 20 16 25 2 4 -9 19 -15 36 -15 l29 0 -3 113 c-2
61 -3 117 -4 124 -3 32 -45 53 -104 53 -51 0 -62 -4 -88 -29z m131 -149 c0
-35 -30 -63 -63 -60 -27 2 -33 8 -35 31 -3 21 2 29 20 36 40 17 78 13 78 -7z"/>
<path d="M6672 4648 c-37 -18 -65 -74 -66 -133 -1 -98 72 -167 159 -151 38 8
95 50 95 72 0 19 -64 19 -80 -1 -19 -23 -56 -18 -79 11 -12 15 -21 31 -21 35
0 5 41 9 90 9 l90 0 0 41 c0 44 -11 72 -43 107 -16 17 -31 22 -71 21 -28 0
-61 -5 -74 -11z m96 -54 c39 -27 24 -48 -36 -50 -54 -2 -63 6 -39 37 10 14 30
26 47 28 3 1 16 -6 28 -15z"/>
<path d="M7269 4631 c-37 -37 -37 -59 -1 -63 18 -2 34 4 49 19 26 27 46 29 67
7 29 -28 19 -42 -41 -54 -101 -21 -136 -60 -109 -124 22 -54 112 -72 147 -30
15 18 29 18 29 -1 0 -10 10 -15 33 -15 l32 0 -5 117 c-3 65 -9 125 -13 134
-12 24 -52 39 -108 39 -42 0 -55 -5 -80 -29z m131 -149 c0 -44 -42 -72 -84
-56 -24 9 -20 49 7 62 37 18 77 15 77 -6z"/>
<path d="M7540 4515 l0 -145 35 0 35 0 0 93 c0 102 9 122 60 129 20 2 26 9 28
36 3 30 1 32 -27 32 -19 0 -35 -8 -44 -20 l-14 -21 -6 21 c-4 15 -13 20 -36
20 l-31 0 0 -145z"/>
<path d="M9118 4643 c-2 -10 -4 -74 -3 -143 l0 -125 38 -3 37 -3 0 145 0 146
-34 0 c-24 0 -35 -5 -38 -17z"/>
<path d="M9301 4644 c-29 -21 -60 -89 -61 -132 0 -102 91 -173 184 -142 30 10
76 54 76 74 0 13 -62 5 -85 -10 -34 -22 -71 -11 -90 26 l-16 30 96 0 95 0 0
35 c0 47 -22 98 -51 119 -31 21 -117 21 -148 0z m109 -54 c36 -36 26 -50 -34
-50 -30 0 -57 4 -60 9 -8 12 39 61 59 61 8 0 24 -9 35 -20z"/>
<path d="M9720 4648 c0 -6 21 -74 47 -151 49 -145 50 -167 7 -176 -22 -4 -34
-19 -34 -43 0 -30 75 -24 104 7 19 20 136 338 136 368 0 4 -17 7 -39 7 l-39 0
-22 -90 c-12 -49 -26 -90 -30 -90 -4 0 -20 41 -36 90 -27 90 -27 90 -61 90
-18 0 -33 -5 -33 -12z"/>
</g>
</svg>
